# xmcd CD database file
#
# Track frame offsets:
#	183
#	43253
#	99775
#
# Disc length: 2508 seconds
#
# Revision: 0
# Processed by: cddbd v1.5.1PL0 Copyright (c) Steve Scherf et al.
# Submitted via: CDex 1.51
#
DISCID=1b09ca03
DTITLE=Martial Solal, Joachim Kuhn - Duo in Paris
DYEAR=1975
DGENRE=Jazz
TTITLE0=Solar
TTITLE1=Journey Around the World
TTITLE2=Musica 2000
EXTD=YEAR: 1975
EXTT0=
EXTT1=
EXTT2=
PLAYORDER=
